<?xml version="1.0" encoding="utf-8"?>
<!-- Generator: Adobe Illustrator 22.0.0, SVG Export Plug-In . SVG Version: 6.00 Build 0)  -->
<svg version="1.1" id="Layer_1" xmlns="http://www.w3.org/2000/svg" xmlns:xlink="http://www.w3.org/1999/xlink" x="0px" y="0px"
	 viewBox="0 0 297 297" style="enable-background:new 0 0 297 297;" xml:space="preserve">
<style type="text/css">
	.st0{fill:none;stroke:#000000;stroke-width:10;stroke-miterlimit:10;}
</style>
<g>
	<g>
		<g>
			<path class="st0" d="M48.2,38.1C48.2,38.1,48.2,38.1,48.2,38.1c-2.8,0-5.3,1.1-7.3,3c-2,2-3,4.6-3,7.3v155.1
				c0,5.7,4.6,10.3,10.4,10.3c24.1,0.1,64.4,5.1,92.2,34.2V85.8c0-1.9-0.5-3.7-1.4-5.2C116.2,43.7,72.3,38.2,48.2,38.1z"/>
			<path class="st0" d="M259.1,203.5V48.4c0-2.8-1.1-5.4-3-7.3c-1.9-1.9-4.5-3-7.2-3c0,0,0,0,0,0c-24.1,0.1-68,5.6-90.8,42.4
				c-0.9,1.5-1.4,3.3-1.4,5.2v162.3c27.8-29.1,68.2-34.1,92.2-34.2C254.5,213.8,259.1,209.2,259.1,203.5z"/>
			<path class="st0" d="M282.7,73.9h-7.5v129.7c0,14.5-11.8,26.4-26.4,26.4c-20.4,0-54.1,4-77.9,26.6c41.2-10.1,84.7-3.5,109.5,2.1
				c3.1,0.7,6.3,0,8.8-2c2.5-2,3.9-4.9,3.9-8.1V84.2C293,78.5,288.4,73.9,282.7,73.9z"/>
			<path class="st0" d="M21.8,203.5V73.9h-7.5C8.6,73.9,4,78.5,4,84.2v164.4c0,3.2,1.4,6.1,3.9,8.1c2.5,2,5.7,2.7,8.8,2
				c24.8-5.6,68.2-12.2,109.5-2.1C102.3,234,68.6,230,48.2,229.9C33.7,229.9,21.8,218,21.8,203.5z"/>
		</g>
	</g>
</g>
</svg>
