<?xml version="1.0" encoding="utf-8"?>
<!-- Generator: Adobe Illustrator 22.0.0, SVG Export Plug-In . SVG Version: 6.00 Build 0)  -->
<svg version="1.1" id="Capa_1" xmlns="http://www.w3.org/2000/svg" xmlns:xlink="http://www.w3.org/1999/xlink" x="0px" y="0px"
	 viewBox="0 0 479 479" style="enable-background:new 0 0 479 479;" xml:space="preserve">
<g>
	<g>
		<path d="M158.4,221.1c-5.3,5.3-5.3,13.8,0,19.1l71.6,71.6c2.6,2.6,6.1,4,9.5,4s6.9-1.3,9.5-4l71.6-71.6c5.3-5.3,5.3-13.8,0-19.1
			s-13.8-5.3-19.1,0L253,269.6V37.8c0-7.5-6-13.5-13.5-13.5s-13.5,6-13.5,13.5v231.8l-48.5-48.5
			C172.2,215.8,163.6,215.8,158.4,221.1z"/>
		<path d="M429.5,297.7h-105c-7.5,0-13.5,6-13.5,13.5v12.2c0,17.9-14.5,32.4-32.4,32.4h-82.4c-17.9,0-32.4-14.5-32.4-32.4v-12.2
			c0-7.5-6-13.5-13.5-13.5H49.4H40c-12,0-21.8,9.7-21.8,21.8v62.1c0,53.8,43.6,97.4,97.4,97.4h247.6c53.8,0,97.4-43.6,97.4-97.4
			v-62.1c0-12-9.7-21.8-21.8-21.8H429.5z M433.9,381.6h-0.2c0,38.8-31.6,70.4-70.4,70.4H115.7c-38.8,0-70.4-31.6-70.4-70.4v-56.9
			H137c0.7,32.1,27.1,58,59.4,58h82.4c32.3,0,58.7-25.9,59.4-58h95.7V381.6z"/>
	</g>
</g>
</svg>
