<?xml version="1.0" encoding="utf-8"?>
<!-- Generator: Adobe Illustrator 22.0.0, SVG Export Plug-In . SVG Version: 6.00 Build 0)  -->
<svg version="1.1" id="Layer_1" xmlns="http://www.w3.org/2000/svg" xmlns:xlink="http://www.w3.org/1999/xlink" x="0px" y="0px"
	 viewBox="0 0 512 512" style="enable-background:new 0 0 512 512;" xml:space="preserve">
<path d="M349.7,58.3l-93.4,78.7l-75,18.2c-4.6,1.1-8.4,4.3-10.3,8.7L44.4,459c-2.2,5.2-1.3,11.3,2.3,15.6c3.7,4.3,9.5,6.2,15,4.9
	l312.2-76.1c4.5-1.1,8.3-4.2,10.2-8.5l31.3-70.3l92.7-78.7c4.5-3.8,6.2-9.6,4.9-15c-0.5-2.2-1.6-4.3-3.1-6.1l-139-164.7
	C365.5,53.8,356,53,349.7,58.3z M116.6,435.2L225.9,343c10.3,6.2,22.9,8.6,35.5,5.5c25.3-6.1,40.8-31.6,34.7-56.9
	c-6.1-25.3-31.6-40.8-56.9-34.7c-25.3,6.1-40.8,31.6-34.7,56.9c0.5,2.2,1.2,4.3,2,6.3L97,412.5l98.6-229.9l62.2-15l68.9,81.1
	l58.8,69.2L359.7,376L116.6,435.2z M233.7,306.7c-2.2-9.2,3.4-18.5,12.6-20.7c9.2-2.2,18.5,3.4,20.7,12.6
	c2.2,9.2-3.4,18.5-12.6,20.7C245.2,321.6,235.9,315.9,233.7,306.7z M477.2,232.7l-72.5,61.5L284.4,152.6l73.1-61.7L477.2,232.7z"/>
</svg>
