<?xml version="1.0" encoding="utf-8"?>
<!-- Generator: Adobe Illustrator 22.0.0, SVG Export Plug-In . SVG Version: 6.00 Build 0)  -->
<svg version="1.1" id="Layer_1" xmlns="http://www.w3.org/2000/svg" xmlns:xlink="http://www.w3.org/1999/xlink" x="0px" y="0px"
	 viewBox="0 0 512 512" style="enable-background:new 0 0 512 512;" xml:space="preserve">
<style type="text/css">
	.st0{fill:#FFFFFF;}
</style>
<g>
	<path class="st0" d="M326.4,301.5L312.9,291c-0.8-0.7-1.6-1.4-2.3-2.1l-18.3-14.6l-25.2,17.5l-0.1,0.1c-3.3,2.2-7.2,3.3-11,3.3
		c-4.2,0-8.1-1.2-11.3-3.5l-25.2-17.4l-16.7,13.3c-1,1.3-2.1,2.4-3.5,3.5l-65.8,51l244.9-0.4L326.4,301.5L326.4,301.5z"/>
	<polygon class="st0" points="156.3,274.3 186.2,251.3 95.2,188.4 95.4,321.7 156.4,274.4 	"/>
	<polygon class="st0" points="373.2,169.9 138.6,170.3 256,251.4 	"/>
	<path class="st0" d="M325.5,251.3l9.9,7.6c0.6,0.4,1.1,0.7,1.7,1.1l79.7,61.8L416.5,188L325.5,251.3z"/>
	<path class="st0" d="M256,0C114.6,0,0,114.6,0,256s114.6,256,256,256s256-114.6,256-256S397.4,0,256,0z M426.8,381.1l-341.3,0.4h0
		c-7.7,0-15.1-3-20.8-8.6c-5.6-5.5-8.7-12.9-8.7-20.9l-0.3-191.8c0-7.8,3-15.2,8.6-20.8c5.5-5.6,12.9-8.7,20.9-8.7l341.3-0.4
		c16.3,0,29.5,13.2,29.5,29.5l0.3,191.8C456.3,367.9,443.1,381.1,426.8,381.1z"/>
</g>
</svg>
