<?xml version="1.0" encoding="utf-8"?>
<!-- Generator: Adobe Illustrator 22.0.0, SVG Export Plug-In . SVG Version: 6.00 Build 0)  -->
<svg version="1.1" id="Capa_1" xmlns="http://www.w3.org/2000/svg" xmlns:xlink="http://www.w3.org/1999/xlink" x="0px" y="0px"
	 viewBox="0 0 433.6 433.6" style="enable-background:new 0 0 433.6 433.6;" xml:space="preserve">
<style type="text/css">
	.st0{fill:#FFFFFF;}
</style>
<g>
	<g>
		<g>
			<path class="st0" d="M47.5,430.9c-20.3,0-36.9-18.6-36.9-41.6V84.6c0.5-19.5,16.3-34.8,35.8-34.8c0.3,0,0.7,0,1,0l36.4,0V18.3
				c0-10,10.1-15.5,19.6-15.5h30.8c10.4,0,17.1,6.1,17.1,15.5v31.5h131V18.3c0-9.4,6.7-15.5,17.1-15.5h30.8
				c9.5,0,19.7,5.4,19.7,15.5v31.5h38.9c9.6,0.4,18.5,4.5,24.9,11.6c6.4,7,9.7,16.2,9.3,25.7l0,0.1v302c0,22.9-16.5,41.6-36.9,41.6
				H47.5z M25.9,389.2c0,12.7,8.3,26.3,21.6,26.3h338.6c13.4,0,21.6-13.7,21.6-26.3V164.4H25.9V389.2z M25.9,149h381.9V87.3
				c0.1-1,0.1-1.9,0.1-2.8l0-0.2c-0.7-10.8-9.7-19.3-20.5-19.3c-0.4,0-0.8,0-1.2,0H350v14.3c0,10.2-10.2,17.1-19.7,17.1h-31.9
				c-9-0.3-16.2-7.9-16-17l0-14.4H151.4v15.4c-0.3,8.9-7.5,16-16.5,16c-0.2,0-0.3,0-0.5,0l-30.9,0c-9.5,0-19.7-6.9-19.7-17.1V65.1
				H47.6c-0.5,0-1-0.1-1.5-0.1c-0.6,0-1.1,0-1.7,0.1c-5.4,0.5-10.4,3.1-13.9,7.3c-3.5,4.2-5.2,9.5-4.7,14.9V149z M303.3,83.2h23.5
				c4.3,0,7.8-3.5,7.8-7.8V23.8c0-4.3-3.5-7.8-7.8-7.8h-23.5c-4.3,0-7.8,3.5-7.8,7.8v51.6C295.6,79.8,299,83.2,303.3,83.2z
				 M104.9,84.2h24.9c4.6,0,8.3-3.7,8.3-8.3V24.4c0-4.6-3.7-8.3-8.3-8.3h-24.9c-4.6,0-8.3,3.7-8.3,8.3v51.6
				C96.6,80.5,100.3,84.2,104.9,84.2z"/>
			<path class="st0" d="M159.7,371.4c-2.8,0-5.4-1.5-6.7-4c-0.8-1.6-1-3.3-0.7-4.8l9.7-53.7l-39.1-37.6c-2-2.3-2.7-5.3-2-8.1
				c1.1-2.6,3.4-4.5,6.1-4.9l53.6-8l24.2-48.8c1.3-2.6,4-4.3,6.9-4.3c1.1,0,2.3,0.3,3.3,0.8c1.5,0.7,2.7,2,3.5,3.5l24.1,48.9l53.7,8
				c2.8,0.5,5.1,2.3,6.1,4.9c0.8,2.9,0,6-1.9,8.1l-39.1,37.6l9.7,53.6c0.3,2.8-0.8,5.5-3.1,7.2c-1.2,1-2.7,1.5-4.3,1.5l-4-0.9
				l-48-25.1l-48.3,25.3C162.1,371.1,160.9,371.4,159.7,371.4z M253.1,350.1l-7.3-42.8c-0.4-2.6,0.4-5.1,2.3-6.9l30.8-29.6l-42.9-6
				c-2.3-0.3-4.1-1.8-5.1-4l0-0.1l-19.3-38.6l-19.3,38.6l0,0.1c-0.8,2.1-2.8,3.6-5.1,4l-42.7,6l30.8,29.6c1.8,1.9,2.7,4.5,2.3,7
				l-7.3,42.8l37.8-20.4l3.7-0.8l3.7,0.8L253.1,350.1z"/>
		</g>
	</g>
</g>
</svg>
