<?xml version="1.0" encoding="utf-8"?>
<!-- Generator: Adobe Illustrator 22.0.0, SVG Export Plug-In . SVG Version: 6.00 Build 0)  -->
<svg version="1.1" id="Layer_1" xmlns="http://www.w3.org/2000/svg" xmlns:xlink="http://www.w3.org/1999/xlink" x="0px" y="0px"
	 viewBox="0 0 89.8 89.8" style="enable-background:new 0 0 89.8 89.8;" xml:space="preserve">
<style type="text/css">
	.st0{fill:#FFFFFF;}
</style>
<g>
	<path class="st0" d="M47.7,38L47.7,38l0.1-0.1C47.8,37.9,47.7,38,47.7,38z M47.7,38L47.7,38l0.1-0.1C47.8,37.9,47.7,38,47.7,38z
		 M44.9,0C20.1,0,0,20.1,0,44.9c0,24.8,20.1,44.9,44.9,44.9c24.8,0,44.9-20.1,44.9-44.9C89.8,20.1,69.7,0,44.9,0z M31.7,64.6H21.4
		V33.5h10.3V64.6z M26.6,29.2L26.6,29.2c-3.5,0-5.8-2.4-5.8-5.4c0-3.1,2.3-5.4,5.8-5.4s5.7,2.3,5.8,5.4
		C32.4,26.9,30.2,29.2,26.6,29.2z M69,64.6H58.6V47.9c0-4.2-1.5-7-5.2-7c-2.9,0-4.5,1.9-5.3,3.8c-0.3,0.7-0.3,1.6-0.3,2.5v17.4H37.4
		c0,0,0.1-28.2,0-31.1h10.3v4.4c1.4-2.1,3.8-5.1,9.3-5.1c6.8,0,11.9,4.4,11.9,14V64.6z M47.8,38v-0.1C47.8,37.9,47.7,38,47.8,38
		L47.8,38z M47.7,38L47.7,38l0.1-0.1C47.8,37.9,47.7,38,47.7,38z M47.7,38L47.7,38l0.1-0.1C47.8,37.9,47.7,38,47.7,38z"/>
</g>
</svg>
