<?xml version="1.0" encoding="utf-8"?>
<!-- Generator: Adobe Illustrator 22.0.0, SVG Export Plug-In . SVG Version: 6.00 Build 0)  -->
<svg version="1.1" id="Capa_1" xmlns="http://www.w3.org/2000/svg" xmlns:xlink="http://www.w3.org/1999/xlink" x="0px" y="0px"
	 viewBox="0 0 410.3 410.3" style="enable-background:new 0 0 410.3 410.3;" xml:space="preserve">
<style type="text/css">
	.st0{fill:#FFFFFF;}
</style>
<g>
	<path class="st0" d="M205.2,0C119.4,0.1,49.8,69.7,49.8,155.5c0,83.5,143.4,245.4,149.4,252.2c2.9,3.3,8,3.6,11.3,0.6
		c0.2-0.2,0.4-0.4,0.6-0.6c6.1-6.9,149.4-168.6,149.4-252.2C360.5,69.7,291,0.1,205.2,0z M205.2,390.2
		c-27.4-32-139.4-166.3-139.4-234.7c0-77,62.4-139.4,139.4-139.4s139.4,62.4,139.4,139.4C344.7,223.8,232.6,358.3,205.2,390.2z"/>
	<path class="st0" d="M208,78c-46.5,0-84.2,37.8-84.2,84.3s37.8,84.2,84.3,84.2s84.2-37.7,84.2-84.2C292.2,115.7,254.5,78,208,78z
		 M208,230.6c-37.7,0-68.2-30.6-68.2-68.2s30.6-68.2,68.2-68.2s68.2,30.6,68.2,68.2S245.7,230.5,208,230.6z"/>
</g>
</svg>
