<?xml version="1.0" encoding="utf-8"?>
<!-- Generator: Adobe Illustrator 22.0.0, SVG Export Plug-In . SVG Version: 6.00 Build 0)  -->
<svg version="1.1" id="Capa_1" xmlns="http://www.w3.org/2000/svg" xmlns:xlink="http://www.w3.org/1999/xlink" x="0px" y="0px"
	 viewBox="0 0 87 87" style="enable-background:new 0 0 87 87;" xml:space="preserve">
<style type="text/css">
	.st0{opacity:0.5;fill:#C8AF31;enable-background:new    ;}
	.st1{fill:#C8AF31;}
</style>
<path class="st0" d="M43.5,4.5c-21.5,0-39,17.5-39,39s17.5,39,39,39s39-17.5,39-39S65,4.5,43.5,4.5z M59.1,44.3l-22,15
	c-0.2,0.1-0.4,0.2-0.6,0.2c-0.2,0-0.3,0-0.5-0.1c-0.3-0.2-0.5-0.5-0.5-0.9v-30c0-0.4,0.2-0.7,0.5-0.9c0.3-0.2,0.7-0.2,1,0l22,15
	c0.3,0.2,0.4,0.5,0.4,0.8S59.3,44.1,59.1,44.3z"/>
<path class="st1" d="M43.5,13.5c-16.5,0-30,13.5-30,30s13.5,30,30,30s30-13.5,30-30S60,13.5,43.5,13.5z M59.1,44.3l-22,15
	c-0.2,0.1-0.4,0.2-0.6,0.2c-0.2,0-0.3,0-0.5-0.1c-0.3-0.2-0.5-0.5-0.5-0.9v-30c0-0.4,0.2-0.7,0.5-0.9c0.3-0.2,0.7-0.2,1,0l22,15
	c0.3,0.2,0.4,0.5,0.4,0.8S59.3,44.1,59.1,44.3z"/>
</svg>
