<?xml version="1.0" encoding="utf-8"?>
<!-- Generator: Adobe Illustrator 22.0.0, SVG Export Plug-In . SVG Version: 6.00 Build 0)  -->
<svg version="1.1" id="Capa_1" xmlns="http://www.w3.org/2000/svg" xmlns:xlink="http://www.w3.org/1999/xlink" x="0px" y="0px"
	 viewBox="0 0 209.3 209.3" style="enable-background:new 0 0 209.3 209.3;" xml:space="preserve">
<g>
	<path d="M104.6,206.4c-42.8,0-81.3-27.1-95.8-67.4l0-0.1l0-0.1c-0.1-0.2-0.1-0.4-0.2-0.6l-0.1-0.2c-3.8-10.8-5.7-22-5.7-33.5
		s1.9-22.7,5.7-33.5L8.6,71c0.1-0.2,0.1-0.4,0.2-0.6l0.1-0.2c14.5-40.3,53-67.4,95.8-67.4c42.8,0,81.3,27.1,95.8,67.4l0.1,0.2
		c0.1,0.2,0.1,0.4,0.2,0.6l0.1,0.2c3.8,10.8,5.7,22,5.7,33.5c0,2.4-0.1,4.8-0.3,7.2l-9.6-16.6c-0.6-5.6-1.6-11-3.1-16.3l-0.6-2H186
		l-5.4-9.3h8.8l-2-4.1c-11.8-23.7-33.2-41.2-58.6-48.1l-6.4-1.7l3.2,5.8c6,10.9,10.6,26.7,13.3,45.7l0.4,2.4h27.6l-5.4,9.3h-21.1
		l0.3,3.1c0.7,8.1,1,16.4,1,24.6c0,2,0,4.2-0.1,6.7l-10.3,17.9c0.7-8,1.1-16.3,1.1-24.6c0-8.5-0.4-16.9-1.1-25.1l-0.2-2.6H78.3
		L78,79.5c-0.7,8.2-1.1,16.7-1.1,25.1c0,8.5,0.4,16.9,1.1,25.1l0.2,2.6h51.2l-5.4,9.3H79.4l0.5,3.3c1.6,10,3.7,19,6.3,26.9
		c5.3,15.8,12.2,25.3,18.5,25.3c6.3,0,13.2-9.4,18.5-25.3c1.7-5,3.1-10.5,4.4-16.5h9.5c-2.8,14-6.7,25.9-11.4,34.5l-3.2,5.8l6.4-1.7
		c6.1-1.7,12.1-4,17.8-6.9v10.3C133.3,203.4,119.2,206.4,104.6,206.4z M21.8,145.8C33.7,169.5,55,187,80.5,193.9l6.4,1.7l-3.2-5.8
		c-6-10.9-10.6-26.7-13.3-45.7l-0.4-2.4H19.8L21.8,145.8z M15.8,79c-2.4,8.3-3.6,17-3.6,25.7c0,8.7,1.2,17.4,3.6,25.7l0.6,2h52.5
		l-0.3-3.1c-0.7-8.1-1-16.4-1-24.6c0-8.3,0.4-16.5,1-24.6l0.3-3.1H16.4L15.8,79z M80.5,15.4C55,22.3,33.7,39.8,21.8,63.5l-2,4.1H70
		l0.4-2.4c2.7-18.9,7.4-34.7,13.3-45.7l3.2-5.8L80.5,15.4z M104.6,12.2c-6.3,0-13.2,9.4-18.5,25.3c-2.6,7.9-4.7,16.9-6.3,26.9
		l-0.5,3.3h50.5l-0.5-3.3c-1.5-10-3.7-19-6.3-26.9C117.8,21.6,110.9,12.2,104.6,12.2z"/>
	<polygon points="163,204.8 163,138.9 144.7,138.9 173.8,88.5 202.8,138.9 185.8,138.9 185.8,204.8 	"/>
</g>
</svg>
