<?xml version="1.0" encoding="utf-8"?>
<!-- Generator: Adobe Illustrator 22.0.0, SVG Export Plug-In . SVG Version: 6.00 Build 0)  -->
<svg version="1.1" id="Capa_1" xmlns="http://www.w3.org/2000/svg" xmlns:xlink="http://www.w3.org/1999/xlink" x="0px" y="0px"
	 viewBox="0 0 451 451" style="enable-background:new 0 0 451 451;" xml:space="preserve">
<style type="text/css">
	.st0{fill:#FFFFFF;}
</style>
<path class="st0" d="M439.5,408.5l-96.6-96.6c26.4-33.4,40.9-74.8,40.9-117.5C383.8,90,298.9,5,194.5,5C90.1,5,5.1,90,5.1,194.4
	c0,104.5,85,189.4,189.4,189.4c42.7,0,84.1-14.5,117.5-40.9l96.5,96.6c4.1,4.1,9.8,6.5,15.5,6.5c5.8,0,11.5-2.4,15.5-6.5
	c4.1-4.1,6.4-9.6,6.4-15.5C446,418.1,443.7,412.6,439.5,408.5z M49,194.4C49,114.2,114.2,49,194.4,49c80.2,0,145.4,65.2,145.4,145.4
	c0,80.2-65.2,145.5-145.4,145.5C114.2,339.9,49,274.6,49,194.4z"/>
</svg>
