<?xml version="1.0" encoding="utf-8"?>
<!-- Generator: Adobe Illustrator 22.0.0, SVG Export Plug-In . SVG Version: 6.00 Build 0)  -->
<svg version="1.1" id="Capa_1" xmlns="http://www.w3.org/2000/svg" xmlns:xlink="http://www.w3.org/1999/xlink" x="0px" y="0px"
	 viewBox="0 0 294.8 294.8" style="enable-background:new 0 0 294.8 294.8;" xml:space="preserve">
<style type="text/css">
	.st0{fill:#B03A3A;}
</style>
<g>
	<path class="st0" d="M183.1,190c-15.9,0-28.9,12.9-28.9,28.9s12.9,28.9,28.9,28.9s28.9-12.9,28.9-28.9S199.1,190,183.1,190z
		 M183.1,239.6c-11.4,0-20.7-9.3-20.7-20.7c0-11.4,9.3-20.7,20.7-20.7c11.4,0,20.7,9.3,20.7,20.7
		C203.8,230.3,194.6,239.6,183.1,239.6z"/>
	<path class="st0" d="M135.3,121.7c1,0,2.1-0.4,2.9-1.2l24.4-24.4c5.2,5.4,12.6,8.7,20.6,8.7c15.9,0,28.9-12.9,28.9-28.9
		s-12.9-28.9-28.9-28.9S154.3,60,154.3,75.9c0,4.9,1.2,9.5,3.3,13.5l-25.3,25.3c-1.6,1.6-1.6,4.2,0,5.8
		C133.2,121.3,134.2,121.7,135.3,121.7z M183.1,55.2c11.4,0,20.7,9.3,20.7,20.7s-9.3,20.7-20.7,20.7s-20.7-9.3-20.7-20.7
		S171.7,55.2,183.1,55.2z"/>
	<path class="st0" d="M154.5,193.3l-24.1-24.1c6.1-5.3,10.1-13.1,10.1-21.9c0-15.9-12.9-28.9-28.9-28.9s-28.9,12.9-28.9,28.9
		s12.9,28.9,28.9,28.9c4.2,0,8.2-0.9,11.7-2.5l25.4,25.4c0.8,0.8,1.8,1.2,2.9,1.2s2.1-0.4,2.9-1.2
		C156.2,197.6,156.2,195,154.5,193.3z M91,147.4c0-11.4,9.3-20.7,20.7-20.7c11.4,0,20.7,9.3,20.7,20.7s-9.3,20.7-20.7,20.7
		S91,158.8,91,147.4z"/>
</g>
</svg>
