<?xml version="1.0" encoding="utf-8"?>
<!-- Generator: Adobe Illustrator 22.0.0, SVG Export Plug-In . SVG Version: 6.00 Build 0)  -->
<svg version="1.1" id="Layer_1" xmlns="http://www.w3.org/2000/svg" xmlns:xlink="http://www.w3.org/1999/xlink" x="0px" y="0px"
	 viewBox="0 0 512 512" style="enable-background:new 0 0 512 512;" xml:space="preserve">
<path d="M377,509.2c-44.1,0-85.2-22-109.8-58.7l-0.8-1.3H15c-6.7,0-12.2-5.5-12.2-12.2V46c0-6.7,5.5-12.2,12.2-12.2h78.8V15
	c0-6.7,5.5-12.2,12.2-12.2s12.2,5.5,12.2,12.2v18.8h65.7V15c0-6.7,5.5-12.2,12.2-12.2s12.2,5.5,12.2,12.2v18.8h65.7V15
	c0-6.7,5.5-12.2,12.2-12.2s12.2,5.5,12.2,12.2v18.8h65.7V15c0-6.7,5.5-12.2,12.2-12.2s12.2,5.5,12.2,12.2v18.8H467
	c6.7,0,12.2,5.5,12.2,12.2v247.3l0.6,0.8c18.9,23.4,29.4,52.9,29.4,83C509.2,449.9,449.9,509.2,377,509.2z M377,269.2
	c-59.5,0-107.8,48.4-107.8,107.8S317.5,484.8,377,484.8S484.8,436.5,484.8,377S436.5,269.2,377,269.2z M27.2,424.8h226.6l-1.3-3.8
	c-3.4-9.5-5.6-19.3-6.7-29.4l-0.3-2.5H227c-6.7,0-12.2-5.5-12.2-12.2s5.5-12.2,12.2-12.2h18.4l0.3-2.5c1.1-10,3.4-19.9,6.7-29.4
	l1.3-3.8H227c-6.7,0-12.2-5.5-12.2-12.2s5.5-12.2,12.2-12.2h30c1.9,0,3.7,0.4,5.5,1.3l2.3,1.1l1.4-2.1c24.6-37.8,66-60.3,110.9-60.3
	c26.3,0,51.6,7.7,73.4,22.3l4.4,3v-122H27.2V424.8z M27.2,123.8h427.7V58.2h-66.7V76c0,6.7-5.5,12.2-12.2,12.2s-12.2-5.5-12.2-12.2
	V58.2h-65.7V76c0,6.7-5.5,12.2-12.2,12.2s-12.2-5.5-12.2-12.2V58.2h-65.7V76c0,6.7-5.5,12.2-12.2,12.2s-12.2-5.5-12.2-12.2V58.2
	h-65.7V76c0,6.7-5.5,12.2-12.2,12.2S93.8,82.7,93.8,76V58.2H27.2V123.8z"/>
<path d="M377,389.2c-6.7,0-12.2-5.5-12.2-12.2v-60c0-6.7,5.5-12.2,12.2-12.2s12.2,5.5,12.2,12.2v47.8H437c6.7,0,12.2,5.5,12.2,12.2
	s-5.5,12.2-12.2,12.2H377z"/>
<path d="M136,182h-30c-8.3,0-15,6.7-15,15s6.7,15,15,15h30c8.3,0,15-6.7,15-15S144.3,182,136,182z"/>
<path d="M106,209.2c-6.7,0-12.2-5.5-12.2-12.2s5.5-12.2,12.2-12.2h30c6.7,0,12.2,5.5,12.2,12.2s-5.5,12.2-12.2,12.2H106z"/>
<path d="M136,242h-30c-8.3,0-15,6.7-15,15s6.7,15,15,15h30c8.3,0,15-6.7,15-15S144.3,242,136,242z"/>
<path d="M106,269.2c-6.7,0-12.2-5.5-12.2-12.2s5.5-12.2,12.2-12.2h30c6.7,0,12.2,5.5,12.2,12.2s-5.5,12.2-12.2,12.2H106z"/>
<path d="M136,302h-30c-8.3,0-15,6.7-15,15s6.7,15,15,15h30c8.3,0,15-6.7,15-15S144.3,302,136,302z"/>
<path d="M106,329.2c-6.7,0-12.2-5.5-12.2-12.2s5.5-12.2,12.2-12.2h30c6.7,0,12.2,5.5,12.2,12.2s-5.5,12.2-12.2,12.2H106z"/>
<path d="M227,212h30c8.3,0,15-6.7,15-15s-6.7-15-15-15h-30c-8.3,0-15,6.7-15,15S218.7,212,227,212z"/>
<path d="M227,209.2c-6.7,0-12.2-5.5-12.2-12.2s5.5-12.2,12.2-12.2h30c6.7,0,12.2,5.5,12.2,12.2s-5.5,12.2-12.2,12.2H227z"/>
<path d="M227,272h30c8.3,0,15-6.7,15-15s-6.7-15-15-15h-30c-8.3,0-15,6.7-15,15S218.7,272,227,272z"/>
<path d="M227,269.2c-6.7,0-12.2-5.5-12.2-12.2s5.5-12.2,12.2-12.2h30c6.7,0,12.2,5.5,12.2,12.2s-5.5,12.2-12.2,12.2H227z"/>
<path d="M136,362h-30c-8.3,0-15,6.7-15,15s6.7,15,15,15h30c8.3,0,15-6.7,15-15S144.3,362,136,362z"/>
<path d="M106,389.2c-6.7,0-12.2-5.5-12.2-12.2s5.5-12.2,12.2-12.2h30c6.7,0,12.2,5.5,12.2,12.2s-5.5,12.2-12.2,12.2H106z"/>
<path d="M347,212h30c8.3,0,15-6.7,15-15s-6.7-15-15-15h-30c-8.3,0-15,6.7-15,15S338.7,212,347,212z"/>
<path d="M347,209.2c-6.7,0-12.2-5.5-12.2-12.2s5.5-12.2,12.2-12.2h30c6.7,0,12.2,5.5,12.2,12.2s-5.5,12.2-12.2,12.2H347z"/>
</svg>
