<?xml version="1.0" encoding="utf-8"?>
<!-- Generator: Adobe Illustrator 22.0.0, SVG Export Plug-In . SVG Version: 6.00 Build 0)  -->
<svg version="1.1" id="Layer_1" xmlns="http://www.w3.org/2000/svg" xmlns:xlink="http://www.w3.org/1999/xlink" x="0px" y="0px"
	 viewBox="0 0 473.9 473.9" style="enable-background:new 0 0 473.9 473.9;" xml:space="preserve">
<style type="text/css">
	.st0{fill:#FFFFFF;}
</style>
<g>
	<polygon class="st0" points="216.6,280.1 285.3,234.9 216.6,189.6 	"/>
	<path class="st0" d="M237,0C106.1,0,0,106.1,0,237c0,130.9,106.1,237,237,237c130.9,0,237-106.1,237-237C473.9,106.1,367.8,0,237,0
		z M361,287.7c0,19.9-16.1,36-35.9,36H156.4c-19.8,0-35.9-16.1-35.9-36v-96.4c0-19.9,16.1-36,35.9-36H325c19.9,0,35.9,16.1,35.9,36
		V287.7z"/>
</g>
</svg>
