<?xml version="1.0" encoding="utf-8"?>
<!-- Generator: Adobe Illustrator 22.1.0, SVG Export Plug-In . SVG Version: 6.00 Build 0)  -->
<svg version="1.1" id="Capa_1" xmlns="http://www.w3.org/2000/svg" xmlns:xlink="http://www.w3.org/1999/xlink" x="0px" y="0px"
	 viewBox="0 0 512 512" style="enable-background:new 0 0 512 512;" xml:space="preserve">
<style type="text/css">
	.st0{fill:#FFFFFF;}
</style>
<g>
	<g>
		<path class="st0" d="M437,181V75H331L256,0l-75,75H75v106L0,256l75,75v106h106l75,75l75-75h106V331l75-75L437,181z M407,318.5V407
			h-88.5L256,469.6L193.4,407H105v-88.5L42.4,256l62.5-62.6V105h88.5L256,42.4l62.5,62.5H407v88.5l62.6,62.6L407,318.5z"/>
	</g>
</g>
<g>
	<g>
		<path class="st0" d="M377,205.9V135h-70.9L256,84.9L205.9,135H135v70.9L84.9,256l50.1,50.1V377h70.9l50.1,50.1l50.1-50.1H377
			v-70.9l50.1-50.1L377,205.9z M347,293.7V347h-53.3L256,384.7L218.3,347H165v-53.3L127.3,256l37.7-37.7V165h53.3l37.7-37.7
			l37.7,37.7H347v53.3l37.7,37.7L347,293.7z"/>
	</g>
</g>
</svg>
