<?xml version="1.0" encoding="utf-8"?>
<!-- Generator: Adobe Illustrator 22.0.0, SVG Export Plug-In . SVG Version: 6.00 Build 0)  -->
<svg version="1.1" id="Capa_1" xmlns="http://www.w3.org/2000/svg" xmlns:xlink="http://www.w3.org/1999/xlink" x="0px" y="0px"
	 viewBox="0 0 376.1 376.1" style="enable-background:new 0 0 376.1 376.1;" xml:space="preserve">
<style type="text/css">
	.st0{fill:#666666;}
</style>
<g>
	<g>
		<path class="st0" d="M236.6,0.1h-98.3c-13.9-0.8-27.6,4.2-37.8,13.7c-9.9,10.7-14.9,24.9-14,39.4V323c0,39.1,27.4,53.1,53.1,53.1
			h97c39.1,0,53.1-27.4,53.1-53.1V53.1C289.7,14,262.3,0.1,236.6,0.1z M277.7,323c0.1,12.3-4,41.1-41,41.1h-97
			c-12.3,0-41.1-4-41.1-41.1v-5h179.2V323z M277.7,306.1H98.5V69.8h179.2V306.1z M277.7,57.9H98.5v-4.7c-0.8-11.3,3-22.4,10.5-30.9
			c8.2-7.3,19-11,29.9-10.2h97.8c12.3,0,41.1,4,41.1,41.1V57.9z"/>
	</g>
</g>
<g>
	<g>
		<path class="st0" d="M207,29.4h-37.6c-3.3,0-6,2.7-6,6c0,3.3,2.7,6,6,6H207c3.3,0,6-2.7,6-6C213,32,210.3,29.4,207,29.4z"/>
	</g>
</g>
</svg>
