<?xml version="1.0" encoding="utf-8"?>
<!-- Generator: Adobe Illustrator 22.1.0, SVG Export Plug-In . SVG Version: 6.00 Build 0)  -->
<svg version="1.1" id="Layer_1" xmlns="http://www.w3.org/2000/svg" xmlns:xlink="http://www.w3.org/1999/xlink" x="0px" y="0px"
	 viewBox="0 0 219 434" style="enable-background:new 0 0 219 434;" xml:space="preserve">
<style type="text/css">
	.st0{fill:#595A5C;}
	.st1{fill:#010101;}
	.st2{fill:none;}
	.st3{fill:#231F20;}
	.st4{fill:#E0E1E0;}
	.st5{fill:#CCCCCC;}
	.st6{fill:#FFFFFF;}
	.st7{font-family:'ABeeZee-Regular';}
	.st8{font-size:5.8828px;}
	.st9{opacity:0.27;fill:#FFFFFF;}
</style>
<g>
	<g>
		<g>
			<g id="XMLID_1_">
				<path id="XMLID_76_" class="st0" d="M216.2,31.5c0-17.4-14.1-31.5-31.5-31.5H34.3C16.9,0,2.8,14.1,2.8,31.5v371
					c0,17.4,14.1,31.5,31.5,31.5h150.4c17.4,0,31.5-14.1,31.5-31.5V31.5z M211.4,402.2c0,14.9-12.1,27-27,27H34
					c-14.9,0-27-12.1-27-27v-371c0-14.9,12.1-27,27-27h150.4c14.9,0,27,12.1,27,27V402.2z"/>
				<path id="XMLID_75_" class="st1" d="M2.8,57.3H2.5c-1.1,0-2,0.9-2,2v12.4c0,1.1,0.9,2,2,2h0.3"/>
				<path id="XMLID_74_" class="st1" d="M216.2,149.2L216.2,149.2c1.3,0,2.3-1,2.3-2.3V101c0-1.3-1-2.3-2.3-2.3l0,0"/>
				<g id="XMLID_71_">
					<path id="XMLID_73_" class="st1" d="M2.8,88.9L2.8,88.9c-1.3,0-2.3,1-2.3,2.3v26.1c0,1.3,1,2.3,2.3,2.3l0,0"/>
					<path id="XMLID_72_" class="st1" d="M2.8,128.3L2.8,128.3c-1.3,0-2.3,1-2.3,2.3v26.1c0,1.3,1,2.3,2.3,2.3l0,0"/>
				</g>
				<path id="XMLID_70_" class="st2" d="M185.3,11.5h-17.2c-3.7,0-5,0-5.3,4.7c-0.2,4.8-3.6,7.5-8.1,8.9c-1.5,0.5-3.2,0.3-4.8,0.3
					h-3.3h-73h-3.3c-1.6,0-3.3,0.3-4.8-0.2c-4.5-1.4-7.8-4.3-8.1-9.1c-0.2-4.7-1.6-4.6-5.3-4.6H34.8c-10.6,0-18.7,8.7-18.7,19.3
					v370.7c0,10.6,8.1,18.6,18.7,18.6h150.5c10.6,0,19.4-8.1,19.4-18.6V30.8C204.7,20.2,195.9,11.5,185.3,11.5z"/>
				<path id="XMLID_65_" class="st3" d="M211.4,31.2c0-14.9-12.1-27-27-27H34c-14.9,0-27,12.1-27,27v371c0,14.9,12.1,27,27,27h150.4
					c14.9,0,27-12.1,27-27V31.2z M134.4,14.8c0,1.5-1.2,2.6-2.6,2.6c-1.5,0-2.6-1.2-2.6-2.6s1.2-2.6,2.6-2.6
					C133.2,12.2,134.4,13.4,134.4,14.8z M98.5,13.3H122c1,0,1.8,0.6,1.8,1.5c0,0.9-0.8,1.5-1.8,1.5H98.5c-1,0-1.8-0.6-1.8-1.5
					C96.6,13.9,97.4,13.3,98.5,13.3z M204.7,401.5c0,10.6-8.8,18.6-19.4,18.6H34.8c-10.6,0-18.7-8.1-18.7-18.6V30.8
					c0-10.6,8.1-19.3,18.7-19.3h17.4c3.7,0,5,0,5.3,4.7c0.2,4.8,3.6,7.5,8.1,8.9c1.5,0.5,3.2,0.3,4.8,0.3h3.3h73h3.3
					c1.6,0,3.3,0.3,4.8-0.2c4.5-1.4,7.8-4.3,8.1-9.1c0.2-4.7,1.6-4.6,5.3-4.6h17.2c10.6,0,19.4,8.7,19.4,19.3V401.5z"/>
				<circle id="XMLID_64_" class="st4" cx="131.8" cy="14.8" r="2.6"/>
				<path id="XMLID_63_" class="st5" d="M98.5,16.3H122c1,0,1.8-0.6,1.8-1.5c0-0.9-0.8-1.5-1.8-1.5H98.5c-1,0-1.8,0.6-1.8,1.5
					C96.6,15.7,97.4,16.3,98.5,16.3z"/>
			</g>
		</g>
	</g>
	<g>
		<rect x="183.3" y="19" class="st6" width="1.4" height="3.3"/>
		<rect x="185.2" y="19" class="st6" width="1.4" height="3.3"/>
		<rect x="187" y="19" class="st6" width="1.4" height="3.3"/>
		<rect x="188.9" y="19" class="st6" width="1.4" height="3.3"/>
		<rect x="190.7" y="19.6" class="st6" width="0.7" height="2"/>
	</g>
	<g>
		<path class="st6" d="M174.5,21.8c-0.4,0-0.7,0.3-0.7,0.7c0,0.4,0.3,0.7,0.7,0.7c0.4,0,0.7-0.3,0.7-0.7
			C175.2,22.1,174.9,21.8,174.5,21.8z"/>
		<path class="st6" d="M176.3,20.4c-0.5-0.4-1.1-0.6-1.8-0.6s-1.3,0.2-1.8,0.6c-0.2,0.2-0.3,0.5-0.1,0.7c0.2,0.2,0.4,0.2,0.6,0.1
			c0.4-0.3,0.8-0.4,1.3-0.4c0.5,0,0.9,0.1,1.3,0.4c0.2,0.1,0.4,0.1,0.6-0.1C176.6,21,176.6,20.6,176.3,20.4z"/>
		<path class="st6" d="M177.6,19.2c-0.8-0.7-1.9-1.1-3.1-1.1c-1.2,0-2.3,0.4-3.1,1.1c-0.2,0.2-0.2,0.5,0,0.7c0.2,0.2,0.4,0.2,0.6,0
			c0.7-0.6,1.6-0.9,2.5-0.9s1.8,0.3,2.5,0.9c0.2,0.2,0.5,0.1,0.6,0C177.9,19.7,177.8,19.3,177.6,19.2z"/>
	</g>
	<text transform="matrix(1 0 0 1 27.8843 22.2519)" class="st6 st7 st8">08.00</text>
	<path class="st9" d="M138.9,412.3h-56c-1.7,0-3-1.4-3-3l0,0c0-1.7,1.3-3,3-3h56c1.6,0,3,1.3,3,3l0,0
		C141.9,410.9,140.5,412.3,138.9,412.3z"/>
</g>
</svg>
