<?xml version="1.0" encoding="utf-8"?>
<!-- Generator: Adobe Illustrator 22.1.0, SVG Export Plug-In . SVG Version: 6.00 Build 0)  -->
<svg version="1.1" id="Layer_1" xmlns="http://www.w3.org/2000/svg" xmlns:xlink="http://www.w3.org/1999/xlink" x="0px" y="0px"
	 viewBox="0 0 307 441" style="enable-background:new 0 0 307 441;" xml:space="preserve">
<style type="text/css">
	.st0{fill:#303030;}
	.st1{fill:#6B6B6B;}
	.st2{fill:#5E5E5E;}
	.st3{opacity:0.6;fill:#5E5E5E;enable-background:new    ;}
	.st4{fill:url(#SVGID_1_);}
	.st5{opacity:0.6;}
	.st6{fill:#010101;}
	.st7{fill:url(#SVGID_2_);}
	.st8{opacity:0.2;fill:url(#SVGID_3_);enable-background:new    ;}
</style>
<g>
	<g>
		<image style="overflow:visible;enable-background:new    ;" width="308" height="441" xlink:href="58AC6B5C.png" >
		</image>
		<path class="st0" d="M290.8,2.5H16.3C8.9,2.5,2.8,8.5,2.8,16v408.7c0,7.4,6,13.5,13.5,13.5h274.5c7.4,0,13.5-6,13.5-13.5V15.9
			C304.3,8.5,298.3,2.5,290.8,2.5z"/>
	</g>
	<g>
		<path class="st1" d="M151.9,13.8c0,0.9,0.7,1.7,1.7,1.7c0.9,0,1.7-0.7,1.7-1.7c0-0.9-0.7-1.7-1.7-1.7
			C152.7,12.2,151.9,12.9,151.9,13.8"/>
		<g>
			<path class="st2" d="M151.3,21c0,1.2,1,2.3,2.3,2.3c1.2,0,2.3-1,2.3-2.3c0-1.2-1-2.3-2.3-2.3C152.3,18.8,151.3,19.8,151.3,21"/>
			<path class="st2" d="M152,21c0,0.9,0.7,1.6,1.6,1.6c0.9,0,1.6-0.7,1.6-1.6s-0.7-1.6-1.6-1.6S152,20.1,152,21"/>
			<path class="st3" d="M152.2,21.1c0-0.3,0.2-0.6,0.6-0.6c0.3,0,0.6,0.3,0.6,0.6c0,0.3-0.3,0.6-0.6,0.6S152.2,21.4,152.2,21.1z"/>
			<path class="st3" d="M153.2,19.9c0.2-0.2,0.4-0.2,0.6,0c0.2,0.2,0.2,0.4,0,0.6s-0.4,0.2-0.6,0C153,20.3,153,20.1,153.2,19.9z"/>
		</g>
	</g>
	<g>
		<g>
			<g>
				
					<linearGradient id="SVGID_1_" gradientUnits="userSpaceOnUse" x1="153.6" y1="9.9494" x2="153.6" y2="28.1159" gradientTransform="matrix(1 0 0 -1 0 442)">
					<stop  offset="0" style="stop-color:#0D0D0D"/>
					<stop  offset="1" style="stop-color:#000000"/>
				</linearGradient>
				<path class="st4" d="M144.5,423c0-5,4.1-9.1,9.1-9.1s9.1,4.1,9.1,9.1s-4.1,9.1-9.1,9.1S144.5,428,144.5,423z"/>
			</g>
			<g class="st5">
				<path class="st6" d="M144.5,423c0-5,4.1-9.1,9.1-9.1s9.1,4.1,9.1,9.1s-4.1,9.1-9.1,9.1S144.5,428,144.5,423z"/>
			</g>
		</g>
		
			<linearGradient id="SVGID_2_" gradientUnits="userSpaceOnUse" x1="146.4588" y1="11.705" x2="160.6553" y2="26.4059" gradientTransform="matrix(1 0 0 -1 0 442)">
			<stop  offset="0" style="stop-color:#0D0D0D"/>
			<stop  offset="1" style="stop-color:#000000"/>
		</linearGradient>
		<path class="st7" d="M153.6,412.7c-5.6,0-10.2,4.6-10.2,10.2s4.6,10.2,10.2,10.2c5.6,0,10.2-4.6,10.2-10.2
			S159.2,412.7,153.6,412.7z M153.6,431.5c-4.7,0-8.5-3.8-8.5-8.5s3.8-8.5,8.5-8.5s8.5,3.8,8.5,8.5S158.3,431.5,153.6,431.5z"/>
		
			<linearGradient id="SVGID_3_" gradientUnits="userSpaceOnUse" x1="143.7" y1="19" x2="163.5" y2="19" gradientTransform="matrix(1 0 0 -1 0 442)">
			<stop  offset="0" style="stop-color:#0D0D0D"/>
			<stop  offset="1" style="stop-color:#000000"/>
		</linearGradient>
		<path class="st8" d="M153.6,413.1c-5.5,0-9.9,4.4-9.9,9.9s4.4,9.9,9.9,9.9s9.9-4.4,9.9-9.9S159,413.1,153.6,413.1z M153.6,431.8
			c-4.9,0-8.8-3.9-8.8-8.8s3.9-8.8,8.8-8.8c4.9,0,8.8,3.9,8.8,8.8C162.4,427.8,158.4,431.8,153.6,431.8z"/>
	</g>
</g>
</svg>
