<?xml version="1.0" encoding="utf-8"?>
<!-- Generator: Adobe Illustrator 22.1.0, SVG Export Plug-In . SVG Version: 6.00 Build 0)  -->
<svg version="1.1" id="Layer_1" xmlns="http://www.w3.org/2000/svg" xmlns:xlink="http://www.w3.org/1999/xlink" x="0px" y="0px"
	 viewBox="0 0 307 441" style="enable-background:new 0 0 307 441;" xml:space="preserve">
<style type="text/css">
	.st0{fill:#303030;}
	.st1{fill:#6B6B6B;}
	.st2{fill:#5E5E5E;}
	.st3{opacity:0.6;fill:#5E5E5E;}
	.st4{fill:url(#SVGID_1_);}
	.st5{filter:url(#Adobe_OpacityMaskFilter);}
	.st6{opacity:0.6;mask:url(#SVGID_2_);}
	.st7{fill:#010101;}
	.st8{fill:url(#SVGID_3_);}
	.st9{opacity:0.2;fill:url(#SVGID_4_);}
	.st10{fill:url(#SVGID_5_);}
	.st11{fill:url(#SVGID_6_);}
	.st12{fill:url(#SVGID_7_);}
	.st13{fill:url(#SVGID_8_);}
	.st14{fill:url(#SVGID_9_);}
	.st15{fill:url(#SVGID_10_);}
	.st16{fill:url(#SVGID_11_);}
	.st17{fill:url(#SVGID_12_);}
	.st18{fill:url(#SVGID_13_);}
	.st19{fill:url(#SVGID_14_);}
	.st20{fill:url(#SVGID_15_);}
	.st21{fill:url(#SVGID_16_);}
	.st22{fill:url(#SVGID_17_);}
	.st23{fill:url(#SVGID_18_);}
	.st24{fill:url(#SVGID_19_);}
	.st25{fill:url(#SVGID_20_);}
	.st26{fill:url(#SVGID_21_);}
</style>
<g>
	<g>
		<image style="overflow:visible;" width="308" height="441" xlink:href="58AC6B5C.png" >
		</image>
		<path class="st0" d="M290.8,2.5H16.3c-7.4,0-13.5,6-13.5,13.5v408.7c0,7.4,6,13.5,13.5,13.5h274.5c7.4,0,13.5-6,13.5-13.5V15.9
			C304.3,8.5,298.3,2.5,290.8,2.5z M288.7,401.6c0,0.2-0.2,0.4-0.3,0.4H18.8c-0.2,0-0.3-0.2-0.3-0.4V37.6c0-0.2,0.2-0.4,0.3-0.4
			h269.6c0.2,0,0.3,0.2,0.3,0.4V401.6z"/>
	</g>
	<g>
		<path class="st1" d="M151.9,13.8c0,0.9,0.7,1.7,1.7,1.7c0.9,0,1.7-0.7,1.7-1.7c0-0.9-0.7-1.7-1.7-1.7
			C152.7,12.2,151.9,12.9,151.9,13.8"/>
		<g>
			<path class="st2" d="M151.3,21c0,1.2,1,2.3,2.3,2.3c1.2,0,2.3-1,2.3-2.3c0-1.2-1-2.3-2.3-2.3C152.3,18.8,151.3,19.8,151.3,21"/>
			<path class="st2" d="M152,21c0,0.9,0.7,1.6,1.6,1.6c0.9,0,1.6-0.7,1.6-1.6c0-0.9-0.7-1.6-1.6-1.6C152.7,19.4,152,20.1,152,21"/>
			<path class="st3" d="M152.2,21.1c0-0.3,0.2-0.6,0.6-0.6c0.3,0,0.6,0.3,0.6,0.6c0,0.3-0.3,0.6-0.6,0.6
				C152.5,21.7,152.2,21.4,152.2,21.1z"/>
			<path class="st3" d="M153.2,19.9c0.2-0.2,0.4-0.2,0.6,0c0.2,0.2,0.2,0.4,0,0.6c-0.2,0.2-0.4,0.2-0.6,0
				C153,20.3,153,20.1,153.2,19.9z"/>
		</g>
	</g>
	<g>
		<g>
			<g>
				<linearGradient id="SVGID_1_" gradientUnits="userSpaceOnUse" x1="153.5806" y1="432.0506" x2="153.5806" y2="413.8841">
					<stop  offset="0" style="stop-color:#0D0D0D"/>
					<stop  offset="1" style="stop-color:#000000"/>
				</linearGradient>
				<path class="st4" d="M144.5,423c0-5,4.1-9.1,9.1-9.1c5,0,9.1,4.1,9.1,9.1c0,5-4.1,9.1-9.1,9.1C148.6,432.1,144.5,428,144.5,423z
					"/>
			</g>
			<defs>
				<filter id="Adobe_OpacityMaskFilter" filterUnits="userSpaceOnUse" x="144.5" y="413.9" width="18.2" height="18.2">
					
						<feColorMatrix  type="matrix" values="-1 0 0 0 1  0 -1 0 0 1  0 0 -1 0 1  0 0 0 1 0" color-interpolation-filters="sRGB" result="source"/>
				</filter>
			</defs>
			<mask maskUnits="userSpaceOnUse" x="144.5" y="413.9" width="18.2" height="18.2" id="SVGID_2_">
				<g class="st5">
					<image style="overflow:visible;" width="23" height="24" xlink:href="58AC6B5C.jpg"  transform="matrix(1 0 0 1 142 411)">
					</image>
				</g>
			</mask>
			<g class="st6">
				<path class="st7" d="M144.5,423c0-5,4.1-9.1,9.1-9.1c5,0,9.1,4.1,9.1,9.1c0,5-4.1,9.1-9.1,9.1C148.6,432.1,144.5,428,144.5,423z
					"/>
			</g>
		</g>
		<linearGradient id="SVGID_3_" gradientUnits="userSpaceOnUse" x1="146.4819" y1="430.3173" x2="160.6784" y2="415.6164">
			<stop  offset="0" style="stop-color:#0D0D0D"/>
			<stop  offset="1" style="stop-color:#000000"/>
		</linearGradient>
		<path class="st8" d="M153.6,412.7c-5.6,0-10.2,4.6-10.2,10.2s4.6,10.2,10.2,10.2c5.6,0,10.2-4.6,10.2-10.2
			S159.2,412.7,153.6,412.7z M153.6,431.5c-4.7,0-8.5-3.8-8.5-8.5c0-4.7,3.8-8.5,8.5-8.5c4.7,0,8.5,3.8,8.5,8.5
			C162.1,427.7,158.3,431.5,153.6,431.5z"/>
		<linearGradient id="SVGID_4_" gradientUnits="userSpaceOnUse" x1="143.6835" y1="422.9673" x2="163.4779" y2="422.9673">
			<stop  offset="0" style="stop-color:#0D0D0D"/>
			<stop  offset="1" style="stop-color:#000000"/>
		</linearGradient>
		<path class="st9" d="M153.6,413.1c-5.5,0-9.9,4.4-9.9,9.9c0,5.5,4.4,9.9,9.9,9.9c5.5,0,9.9-4.4,9.9-9.9
			C163.5,417.5,159,413.1,153.6,413.1z M153.6,431.8c-4.9,0-8.8-3.9-8.8-8.8c0-4.9,3.9-8.8,8.8-8.8c4.9,0,8.8,3.9,8.8,8.8
			C162.4,427.8,158.4,431.8,153.6,431.8z"/>
	</g>
	<g>
		<g>
			<g>
				<g>
					<linearGradient id="SVGID_5_" gradientUnits="userSpaceOnUse" x1="35.3885" y1="47.2245" x2="40.6448" y2="47.2245">
						<stop  offset="0" style="stop-color:#0D0D0D"/>
						<stop  offset="1" style="stop-color:#000000"/>
					</linearGradient>
					<path class="st10" d="M38,46.4c-1,0-1.9,0.4-2.6,1.1l0.6,0.5c0.5-0.5,1.2-0.8,2-0.8c0.8,0,1.6,0.3,2.1,0.9l0.6-0.5
						C40,46.9,39,46.4,38,46.4z"/>
					<linearGradient id="SVGID_6_" gradientUnits="userSpaceOnUse" x1="37.1381" y1="49.4814" x2="38.8482" y2="49.4814">
						<stop  offset="0" style="stop-color:#0D0D0D"/>
						<stop  offset="1" style="stop-color:#000000"/>
					</linearGradient>
					<path class="st11" d="M37.1,49.3L38,50l0.9-0.7c-0.2-0.2-0.5-0.4-0.9-0.4C37.7,48.9,37.4,49.1,37.1,49.3z"/>
					<linearGradient id="SVGID_7_" gradientUnits="userSpaceOnUse" x1="36.3109" y1="48.3105" x2="39.6988" y2="48.3105">
						<stop  offset="0" style="stop-color:#0D0D0D"/>
						<stop  offset="1" style="stop-color:#000000"/>
					</linearGradient>
					<path class="st12" d="M36.3,48.4l0.5,0.4c0.3-0.3,0.7-0.5,1.2-0.5c0.5,0,0.9,0.2,1.2,0.5l0.5-0.4c-0.4-0.4-1-0.7-1.7-0.7
						C37.3,47.7,36.7,48,36.3,48.4z"/>
				</g>
				<g>
					<linearGradient id="SVGID_8_" gradientUnits="userSpaceOnUse" x1="32.7795" y1="48.2869" x2="34.2696" y2="48.2869">
						<stop  offset="0" style="stop-color:#0D0D0D"/>
						<stop  offset="1" style="stop-color:#000000"/>
					</linearGradient>
					<path class="st13" d="M32.8,48.3c0-0.4,0.3-0.7,0.7-0.7c0.4,0,0.7,0.3,0.7,0.7c0,0.4-0.3,0.7-0.7,0.7
						C33.1,49,32.8,48.7,32.8,48.3z"/>
					<linearGradient id="SVGID_9_" gradientUnits="userSpaceOnUse" x1="30.8847" y1="48.2869" x2="32.3733" y2="48.2869">
						<stop  offset="0" style="stop-color:#0D0D0D"/>
						<stop  offset="1" style="stop-color:#000000"/>
					</linearGradient>
					<path class="st14" d="M30.9,48.3c0-0.4,0.3-0.7,0.7-0.7c0.4,0,0.7,0.3,0.7,0.7c0,0.4-0.3,0.7-0.7,0.7
						C31.2,49,30.9,48.7,30.9,48.3z"/>
					<linearGradient id="SVGID_10_" gradientUnits="userSpaceOnUse" x1="28.9869" y1="48.2869" x2="30.4785" y2="48.2869">
						<stop  offset="0" style="stop-color:#0D0D0D"/>
						<stop  offset="1" style="stop-color:#000000"/>
					</linearGradient>
					<path class="st15" d="M29,48.3c0-0.4,0.3-0.7,0.7-0.7c0.4,0,0.7,0.3,0.7,0.7c0,0.4-0.3,0.7-0.7,0.7C29.3,49,29,48.7,29,48.3z"
						/>
					<linearGradient id="SVGID_11_" gradientUnits="userSpaceOnUse" x1="27.0892" y1="48.2869" x2="28.5777" y2="48.2869">
						<stop  offset="0" style="stop-color:#0D0D0D"/>
						<stop  offset="1" style="stop-color:#000000"/>
					</linearGradient>
					<path class="st16" d="M27.1,48.3c0-0.4,0.3-0.7,0.7-0.7c0.4,0,0.7,0.3,0.7,0.7c0,0.4-0.3,0.7-0.7,0.7
						C27.4,49,27.1,48.7,27.1,48.3z"/>
					<linearGradient id="SVGID_12_" gradientUnits="userSpaceOnUse" x1="25.1913" y1="48.2869" x2="26.6814" y2="48.2869">
						<stop  offset="0" style="stop-color:#0D0D0D"/>
						<stop  offset="1" style="stop-color:#000000"/>
					</linearGradient>
					<path class="st17" d="M25.2,48.3c0-0.4,0.3-0.7,0.7-0.7c0.4,0,0.7,0.3,0.7,0.7c0,0.4-0.3,0.7-0.7,0.7
						C25.5,49,25.2,48.7,25.2,48.3z"/>
				</g>
			</g>
			<g>
				<g>
					<linearGradient id="SVGID_13_" gradientUnits="userSpaceOnUse" x1="275.693" y1="48.2855" x2="281.9685" y2="48.2855">
						<stop  offset="0" style="stop-color:#0D0D0D"/>
						<stop  offset="1" style="stop-color:#000000"/>
					</linearGradient>
					<path class="st18" d="M281.1,47.5v1.6v0.5h-5.4V47h5.4V47.5z M282,48.8h-0.6v-1h0.6V48.8z"/>
				</g>
				<g>
					<linearGradient id="SVGID_14_" gradientUnits="userSpaceOnUse" x1="265.4063" y1="48.2731" x2="266.3362" y2="48.2731">
						<stop  offset="0" style="stop-color:#0D0D0D"/>
						<stop  offset="1" style="stop-color:#000000"/>
					</linearGradient>
					<path class="st19" d="M266,49.5v-1.8h-0.6v-0.2c0.1,0,0.2,0,0.2,0c0.1,0,0.1,0,0.2-0.1c0.1,0,0.1-0.1,0.2-0.1
						c0-0.1,0.1-0.1,0.1-0.2h0.2v2.4H266z"/>
					<linearGradient id="SVGID_15_" gradientUnits="userSpaceOnUse" x1="267.1708" y1="48.2906" x2="268.8" y2="48.2906">
						<stop  offset="0" style="stop-color:#0D0D0D"/>
						<stop  offset="1" style="stop-color:#000000"/>
					</linearGradient>
					<path class="st20" d="M267.2,48c0-0.1,0-0.2,0-0.3c0-0.1,0-0.2,0.1-0.3c0-0.1,0.1-0.2,0.1-0.2c0.1-0.1,0.1-0.1,0.2-0.1
						c0.1,0,0.2-0.1,0.3-0.1c0.1,0,0.2,0,0.3,0.1c0.1,0,0.2,0.1,0.2,0.1c0.1,0.1,0.1,0.1,0.1,0.2c0,0.1,0.1,0.2,0.1,0.3
						c0,0.1,0,0.2,0,0.3c0,0.1,0,0.2,0,0.3s0,0.2,0,0.3c0,0.1,0,0.2,0,0.3c0,0.1,0,0.2-0.1,0.3c0,0.1-0.1,0.2-0.1,0.2
						c-0.1,0.1-0.1,0.1-0.2,0.1c-0.1,0-0.2,0.1-0.3,0.1c-0.1,0-0.2,0-0.3-0.1c-0.1,0-0.2-0.1-0.2-0.1c-0.1-0.1-0.1-0.1-0.1-0.2
						c0-0.1-0.1-0.2-0.1-0.3c0-0.1,0-0.2,0-0.3c0-0.1,0-0.2,0-0.3S267.2,48.1,267.2,48z M267.5,48.6c0,0.1,0,0.2,0.1,0.3
						c0,0.1,0.1,0.2,0.1,0.3c0.1,0.1,0.2,0.1,0.3,0.1c0.1,0,0.2,0,0.3-0.1c0.1-0.1,0.1-0.2,0.1-0.3c0-0.1,0-0.2,0.1-0.3
						c0-0.1,0-0.2,0-0.3c0-0.1,0-0.1,0-0.2c0-0.1,0-0.1,0-0.2c0-0.1,0-0.1,0-0.2c0-0.1,0-0.1-0.1-0.2c0-0.1-0.1-0.1-0.1-0.1
						c-0.1,0-0.1,0-0.2,0c-0.1,0-0.2,0-0.2,0c-0.1,0-0.1,0.1-0.1,0.1c0,0.1-0.1,0.1-0.1,0.2c0,0.1,0,0.1,0,0.2c0,0.1,0,0.1,0,0.2
						c0,0.1,0,0.1,0,0.2C267.5,48.4,267.5,48.5,267.5,48.6z"/>
					<linearGradient id="SVGID_16_" gradientUnits="userSpaceOnUse" x1="269.089" y1="48.2906" x2="270.7184" y2="48.2906">
						<stop  offset="0" style="stop-color:#0D0D0D"/>
						<stop  offset="1" style="stop-color:#000000"/>
					</linearGradient>
					<path class="st21" d="M269.1,48c0-0.1,0-0.2,0-0.3c0-0.1,0-0.2,0.1-0.3c0-0.1,0.1-0.2,0.1-0.2c0.1-0.1,0.1-0.1,0.2-0.1
						c0.1,0,0.2-0.1,0.3-0.1c0.1,0,0.2,0,0.3,0.1c0.1,0,0.2,0.1,0.2,0.1c0.1,0.1,0.1,0.1,0.1,0.2c0,0.1,0.1,0.2,0.1,0.3
						c0,0.1,0,0.2,0,0.3c0,0.1,0,0.2,0,0.3s0,0.2,0,0.3c0,0.1,0,0.2,0,0.3c0,0.1,0,0.2-0.1,0.3c0,0.1-0.1,0.2-0.1,0.2
						c-0.1,0.1-0.1,0.1-0.2,0.1c-0.1,0-0.2,0.1-0.3,0.1c-0.1,0-0.2,0-0.3-0.1c-0.1,0-0.2-0.1-0.2-0.1c-0.1-0.1-0.1-0.1-0.1-0.2
						c0-0.1-0.1-0.2-0.1-0.3c0-0.1,0-0.2,0-0.3c0-0.1,0-0.2,0-0.3S269.1,48.1,269.1,48z M269.4,48.6c0,0.1,0,0.2,0.1,0.3
						c0,0.1,0.1,0.2,0.1,0.3c0.1,0.1,0.2,0.1,0.3,0.1c0.1,0,0.2,0,0.3-0.1c0.1-0.1,0.1-0.2,0.2-0.3c0-0.1,0-0.2,0.1-0.3
						c0-0.1,0-0.2,0-0.3c0-0.1,0-0.1,0-0.2c0-0.1,0-0.1,0-0.2c0-0.1,0-0.1,0-0.2c0-0.1,0-0.1-0.1-0.2c0-0.1-0.1-0.1-0.1-0.1
						c-0.1,0-0.1,0-0.2,0c-0.1,0-0.2,0-0.2,0c-0.1,0-0.1,0.1-0.1,0.1c0,0.1-0.1,0.1-0.1,0.2c0,0.1,0,0.1,0,0.2c0,0.1,0,0.1,0,0.2
						c0,0.1,0,0.1,0,0.2C269.4,48.4,269.4,48.5,269.4,48.6z"/>
					<linearGradient id="SVGID_17_" gradientUnits="userSpaceOnUse" x1="271.1789" y1="48.2869" x2="273.9962" y2="48.2869">
						<stop  offset="0" style="stop-color:#0D0D0D"/>
						<stop  offset="1" style="stop-color:#000000"/>
					</linearGradient>
					<path class="st22" d="M271.2,47.5c0-0.1,0-0.2,0.1-0.2c0-0.1,0.1-0.1,0.2-0.2c0.1,0,0.2-0.1,0.3-0.1c0.1,0,0.2,0,0.3,0.1
						c0.1,0,0.1,0.1,0.2,0.1c0,0.1,0.1,0.1,0.1,0.2c0,0.1,0,0.2,0,0.3c0,0.1,0,0.2,0,0.3c0,0.1-0.1,0.2-0.1,0.2
						c0,0.1-0.1,0.1-0.2,0.2c-0.1,0-0.2,0.1-0.3,0.1c-0.1,0-0.2,0-0.3-0.1c-0.1,0-0.1-0.1-0.2-0.1c0-0.1-0.1-0.1-0.1-0.2
						c0-0.1,0-0.2,0-0.3C271.2,47.7,271.2,47.6,271.2,47.5z M271.4,47.9c0,0.1,0,0.1,0,0.2c0,0.1,0.1,0.1,0.1,0.1
						c0,0,0.1,0.1,0.2,0.1c0.1,0,0.1,0,0.2,0c0,0,0.1-0.1,0.1-0.1c0,0,0-0.1,0-0.2c0-0.1,0-0.1,0-0.2c0-0.1,0-0.1,0-0.2
						c0-0.1,0-0.1,0-0.2c0,0-0.1-0.1-0.1-0.1c0,0-0.1-0.1-0.2-0.1c-0.1,0-0.1,0-0.2,0.1c0,0-0.1,0.1-0.1,0.1c0,0,0,0.1,0,0.2
						c0,0.1,0,0.1,0,0.2C271.4,47.8,271.4,47.8,271.4,47.9z M273.7,47l-1.9,2.6h-0.3l1.9-2.6H273.7z M272.9,48.6
						c0-0.1,0-0.2,0.1-0.2c0-0.1,0.1-0.1,0.2-0.2c0.1,0,0.2-0.1,0.3-0.1c0.1,0,0.2,0,0.3,0.1c0.1,0,0.1,0.1,0.2,0.1
						c0,0.1,0.1,0.1,0.1,0.2c0,0.1,0,0.2,0,0.3c0,0.1,0,0.2,0,0.3c0,0.1-0.1,0.2-0.1,0.2c0,0.1-0.1,0.1-0.2,0.2
						c-0.1,0-0.2,0.1-0.3,0.1c-0.1,0-0.2,0-0.3-0.1c-0.1,0-0.1-0.1-0.2-0.1c0-0.1-0.1-0.1-0.1-0.2c0-0.1,0-0.2,0-0.3
						C272.9,48.8,272.9,48.7,272.9,48.6z M273.2,49c0,0.1,0,0.1,0,0.2c0,0,0,0.1,0.1,0.1c0,0,0.1,0,0.2,0c0.1,0,0.1,0,0.2,0
						c0,0,0.1-0.1,0.1-0.1c0,0,0-0.1,0-0.2c0-0.1,0-0.1,0-0.2c0-0.1,0-0.1,0-0.2c0-0.1,0-0.1,0-0.2c0,0,0-0.1-0.1-0.1
						c0,0-0.1,0-0.2,0c-0.1,0-0.1,0-0.2,0c0,0-0.1,0.1-0.1,0.1c0,0,0,0.1,0,0.2c0,0.1,0,0.1,0,0.2C273.1,48.9,273.1,49,273.2,49z"/>
				</g>
			</g>
		</g>
		<g>
			<linearGradient id="SVGID_18_" gradientUnits="userSpaceOnUse" x1="150.6263" y1="48.287" x2="152.2688" y2="48.287">
				<stop  offset="0" style="stop-color:#0D0D0D"/>
				<stop  offset="1" style="stop-color:#000000"/>
			</linearGradient>
			<path class="st23" d="M151.1,49.2c0.1,0.1,0.2,0.1,0.3,0.1c0.2,0,0.3-0.1,0.4-0.2c0.1-0.2,0.1-0.4,0.1-0.7l0,0
				c-0.1,0.1-0.1,0.2-0.2,0.2c-0.1,0.1-0.2,0.1-0.3,0.1c-0.1,0-0.2,0-0.3-0.1c-0.1,0-0.2-0.1-0.2-0.2c-0.1-0.1-0.1-0.2-0.1-0.3
				c0-0.1-0.1-0.2-0.1-0.3c0-0.1,0-0.2,0.1-0.3c0-0.1,0.1-0.2,0.2-0.3c0.1-0.1,0.2-0.1,0.3-0.2c0.1,0,0.2-0.1,0.3-0.1
				c0.1,0,0.2,0,0.3,0.1c0.1,0,0.2,0.1,0.3,0.2c0.1,0.1,0.1,0.2,0.2,0.4c0,0.2,0.1,0.3,0.1,0.6c0,0.4-0.1,0.7-0.2,1
				c-0.1,0.2-0.3,0.3-0.6,0.3c-0.2,0-0.4-0.1-0.5-0.2c-0.1-0.1-0.2-0.3-0.2-0.5h0.3C151,49,151,49.1,151.1,49.2z M151.9,47.6
				c0-0.1-0.1-0.1-0.1-0.2c0-0.1-0.1-0.1-0.2-0.1c-0.1,0-0.1,0-0.2,0c-0.1,0-0.2,0-0.2,0c-0.1,0-0.1,0.1-0.1,0.1
				c0,0.1-0.1,0.1-0.1,0.2c0,0.1,0,0.1,0,0.2c0,0.1,0,0.1,0,0.2c0,0.1,0.1,0.1,0.1,0.2c0,0,0.1,0.1,0.2,0.1c0.1,0,0.1,0,0.2,0
				c0.1,0,0.1,0,0.2,0c0.1,0,0.1-0.1,0.2-0.1c0-0.1,0.1-0.1,0.1-0.2c0-0.1,0-0.1,0-0.2C151.9,47.8,151.9,47.7,151.9,47.6z"/>
			<linearGradient id="SVGID_19_" gradientUnits="userSpaceOnUse" x1="152.7147" y1="48.5987" x2="153.0975" y2="48.5987">
				<stop  offset="0" style="stop-color:#0D0D0D"/>
				<stop  offset="1" style="stop-color:#000000"/>
			</linearGradient>
			<path class="st24" d="M152.7,48.1v-0.4h0.4v0.4H152.7z M153.1,49.1v0.4h-0.4v-0.4H153.1z"/>
			<linearGradient id="SVGID_20_" gradientUnits="userSpaceOnUse" x1="153.4846" y1="48.268" x2="155.1653" y2="48.268">
				<stop  offset="0" style="stop-color:#0D0D0D"/>
				<stop  offset="1" style="stop-color:#000000"/>
			</linearGradient>
			<path class="st25" d="M155.2,48.7v0.3h-0.3v0.6h-0.3v-0.6h-1.1v-0.3l1.1-1.6h0.2v1.6H155.2z M154.6,47.5L154.6,47.5l-0.8,1.2h0.8
				V47.5z"/>
			<linearGradient id="SVGID_21_" gradientUnits="userSpaceOnUse" x1="155.6053" y1="48.268" x2="156.5337" y2="48.268">
				<stop  offset="0" style="stop-color:#0D0D0D"/>
				<stop  offset="1" style="stop-color:#000000"/>
			</linearGradient>
			<path class="st26" d="M156.2,49.5v-1.8h-0.6v-0.2c0.1,0,0.2,0,0.2,0c0.1,0,0.2,0,0.2-0.1c0.1,0,0.1-0.1,0.2-0.1
				c0-0.1,0.1-0.1,0.1-0.2h0.2v2.4H156.2z"/>
		</g>
	</g>
</g>
</svg>
